<svg width="32" height="32" viewBox="0 0 32 32" fill="none" xmlns="http://www.w3.org/2000/svg">
<path opacity="0.5" d="M7.33333 21.3333V10.6666C7.33333 9.60576 6.9119 8.58834 6.16176 7.8382C5.41161 7.08805 4.3942 6.66663 3.33333 6.66663C3.15652 6.66663 2.98695 6.73686 2.86193 6.86189C2.7369 6.98691 2.66666 7.15648 2.66666 7.33329V24.6666C2.66666 24.8434 2.7369 25.013 2.86193 25.138C2.98695 25.2631 3.15652 25.3333 3.33333 25.3333C4.3942 25.3333 5.41161 24.9119 6.16176 24.1617C6.9119 23.4116 7.33333 22.3942 7.33333 21.3333ZM24.6667 10.6666V21.3333C24.6667 22.3942 25.0881 23.4116 25.8382 24.1617C26.5884 24.9119 27.6058 25.3333 28.6667 25.3333C28.8435 25.3333 29.013 25.2631 29.1381 25.138C29.2631 25.013 29.3333 24.8434 29.3333 24.6666V7.33329C29.3333 7.15648 29.2631 6.98691 29.1381 6.86189C29.013 6.73686 28.8435 6.66663 28.6667 6.66663C27.6058 6.66663 26.5884 7.08805 25.8382 7.8382C25.0881 8.58834 24.6667 9.60576 24.6667 10.6666Z" fill="white" fill-opacity="0.55"/>
<path d="M15.3333 25.3333C12.8187 25.3333 11.5627 25.3333 10.7813 24.552C10 23.7706 10 22.5146 10 20V12C10 9.48529 10 8.22929 10.7813 7.44796C11.5627 6.66663 12.8187 6.66663 15.3333 6.66663H16.6667C19.1813 6.66663 20.4373 6.66663 21.2187 7.44796C22 8.22929 22 9.48529 22 12V20C22 22.5146 22 23.7706 21.2187 24.552C20.4373 25.3333 19.1813 25.3333 16.6667 25.3333H15.3333Z" fill="white" fill-opacity="0.55"/>
</svg>
