<svg width="32" height="32" viewBox="0 0 32 32" fill="none" xmlns="http://www.w3.org/2000/svg">
<rect width="32" height="32" rx="8" fill="url(#paint0_linear_491_6888)"/>
<path d="M24.312 16.647L24.829 14.715C25.433 12.46 25.736 11.333 25.509 10.357C25.3291 9.58646 24.9247 8.88662 24.347 8.34597C23.616 7.66097 22.488 7.35897 20.233 6.75497C17.978 6.14997 16.85 5.84797 15.875 6.07497C15.1045 6.25488 14.4046 6.65927 13.864 7.23697C13.277 7.86297 12.971 8.77997 12.516 10.446L12.272 11.351L11.755 13.283C11.15 15.538 10.848 16.665 11.075 17.641C11.2549 18.4115 11.6593 19.1113 12.237 19.652C12.968 20.337 14.096 20.639 16.351 21.244C18.383 21.788 19.5 22.087 20.415 21.974C20.515 21.9613 20.613 21.944 20.709 21.922C21.4792 21.7426 22.1791 21.3389 22.72 20.762C23.405 20.03 23.707 18.902 24.312 16.647Z" fill="white"/>
<path opacity="0.5" d="M20.415 21.9748C20.2058 22.6148 19.8384 23.1916 19.347 23.6518C18.616 24.3368 17.488 24.6388 15.233 25.2428C12.978 25.8468 11.85 26.1498 10.875 25.9218C10.1046 25.7422 9.40475 25.3382 8.86397 24.7608C8.17897 24.0298 7.87597 22.9018 7.27197 20.6468L6.75497 18.7148C6.14997 16.4598 5.84797 15.3318 6.07497 14.3568C6.25488 13.5863 6.65927 12.8865 7.23697 12.3458C7.96797 11.6608 9.09597 11.3588 11.351 10.7538C11.7763 10.6392 12.1646 10.5362 12.516 10.4448L12.272 11.3508L11.755 13.2828C11.15 15.5378 10.848 16.6648 11.075 17.6408C11.2549 18.4113 11.6593 19.1112 12.237 19.6518C12.968 20.3368 14.096 20.6388 16.351 21.2438C18.383 21.7878 19.5 22.0878 20.415 21.9748Z" fill="white"/>
<defs>
<linearGradient id="paint0_linear_491_6888" x1="16" y1="0" x2="16" y2="32" gradientUnits="userSpaceOnUse">
<stop stop-color="#26C5F3"/>
<stop offset="1" stop-color="#B429F9"/>
</linearGradient>
</defs>
</svg>
