<svg width="24" height="24" viewBox="0 0 24 24" fill="none" xmlns="http://www.w3.org/2000/svg">
<path d="M16.9999 12C18.0872 11.9998 19.1448 11.6452 20.0125 10.9899C20.8802 10.3345 21.5105 9.41425 21.8081 8.36843C22.1057 7.32262 22.0543 6.20831 21.6616 5.19436C21.2689 4.18041 20.5564 3.32209 19.6321 2.74949C18.7078 2.17688 17.622 1.9212 16.5392 2.02119C15.4565 2.12118 14.4359 2.57139 13.6321 3.30358C12.8282 4.03578 12.285 5.01006 12.0846 6.07878C11.8843 7.14749 12.0378 8.25238 12.5219 9.22601C12.6131 9.40287 12.6369 9.60688 12.5889 9.80001L12.2909 10.913C12.2614 11.0232 12.2614 11.1392 12.2909 11.2494C12.3205 11.3596 12.3785 11.4601 12.4591 11.5407C12.5398 11.6214 12.6403 11.6794 12.7505 11.709C12.8607 11.7385 12.9767 11.7385 13.0869 11.709L14.1999 11.411C14.393 11.3629 14.597 11.3868 14.7739 11.478C15.4656 11.8216 16.2275 12.0003 16.9999 12Z" fill="white"/>
<path opacity="0.5" d="M8.03815 7.31598L8.68715 8.47898C9.27215 9.52898 9.03715 10.905 8.11515 11.828C8.11515 11.828 6.99515 12.947 9.02515 14.976C11.0521 17.003 12.1721 15.886 12.1721 15.886C13.0951 14.963 14.4721 14.728 15.5211 15.313L16.6841 15.963C18.2691 16.847 18.4561 19.069 17.0631 20.463C16.2261 21.299 15.2001 21.951 14.0671 21.993C12.1591 22.066 8.91815 21.583 5.66715 18.333C2.41715 15.082 1.93415 11.841 2.00715 9.93298C2.05015 8.79998 2.70115 7.77398 3.53715 6.93698C4.93115 5.54398 7.15315 5.73098 8.03715 7.31698" fill="white"/>
</svg>
