<svg width="32" height="32" viewBox="0 0 32 32" fill="none" xmlns="http://www.w3.org/2000/svg">
<path d="M23.9998 10.6667C23.9998 11.3739 23.7189 12.0522 23.2188 12.5523C22.7187 13.0524 22.0404 13.3333 21.3332 13.3333C20.6259 13.3333 19.9477 13.0524 19.4476 12.5523C18.9475 12.0522 18.6665 11.3739 18.6665 10.6667C18.6665 9.95942 18.9475 9.28115 19.4476 8.78105C19.9477 8.28095 20.6259 8 21.3332 8C22.0404 8 22.7187 8.28095 23.2188 8.78105C23.7189 9.28115 23.9998 9.95942 23.9998 10.6667Z" fill="url(#paint0_linear_309_21392)"/>
<path fill-rule="evenodd" clip-rule="evenodd" d="M16.0758 1.66666H15.9238C12.8452 1.66666 10.4332 1.66666 8.5505 1.91999C6.62517 2.17866 5.10517 2.71999 3.91184 3.91199C2.7185 5.10532 2.1785 6.62532 1.91984 8.55199C1.6665 10.4333 1.6665 12.8453 1.6665 15.924V16.076C1.6665 19.1547 1.6665 21.5667 1.91984 23.4493C2.1785 25.3747 2.71984 26.8947 3.91184 28.088C5.10517 29.2813 6.62517 29.8213 8.55184 30.08C10.4332 30.3333 12.8452 30.3333 15.9238 30.3333H16.0758C19.1545 30.3333 21.5665 30.3333 23.4492 30.08C25.3745 29.8213 26.8945 29.28 28.0878 28.088C29.2812 26.8947 29.8212 25.3747 30.0798 23.448C30.3332 21.5667 30.3332 19.1547 30.3332 16.076V15.924C30.3332 12.8453 30.3332 10.4333 30.0798 8.55066C29.8212 6.62532 29.2798 5.10532 28.0878 3.91199C26.8945 2.71866 25.3745 2.17866 23.4478 1.91999C21.5665 1.66666 19.1545 1.66666 16.0758 1.66666ZM5.3265 5.32666C6.0865 4.56666 7.11317 4.13066 8.8185 3.90132C10.5518 3.66932 12.8292 3.66666 15.9998 3.66666C19.1705 3.66666 21.4478 3.66932 23.1812 3.90132C24.8865 4.13066 25.9145 4.56799 26.6745 5.32666C27.4332 6.08666 27.8692 7.11332 28.0985 8.81866C28.3305 10.552 28.3332 12.8293 28.3332 16L28.3318 17.7067L28.0358 17.6667C24.2438 17.1413 20.7745 19.112 19.0065 22.084C16.7265 16.3173 10.7038 12.384 3.9745 13.3507L3.67317 13.3933C3.68784 11.52 3.7385 10.0347 3.90117 8.81866C4.1305 7.11332 4.56784 6.08666 5.3265 5.32666Z" fill="url(#paint1_linear_309_21392)"/>
<defs>
<linearGradient id="paint0_linear_309_21392" x1="21.3332" y1="8" x2="21.3332" y2="13.3333" gradientUnits="userSpaceOnUse">
<stop stop-color="#F8A902"/>
<stop offset="1" stop-color="#F3696E"/>
</linearGradient>
<linearGradient id="paint1_linear_309_21392" x1="15.9998" y1="1.66666" x2="15.9998" y2="30.3333" gradientUnits="userSpaceOnUse">
<stop stop-color="#F8A902"/>
<stop offset="1" stop-color="#F3696E"/>
</linearGradient>
</defs>
</svg>
