<svg width="24" height="25" viewBox="0 0 24 25" fill="none" xmlns="http://www.w3.org/2000/svg">
<path fill-rule="evenodd" clip-rule="evenodd" d="M11.2922 3.808C10.8982 4.322 10.4542 5.116 9.80823 6.274L9.48123 6.861L9.42223 6.967C9.12223 7.507 8.86723 7.965 8.45823 8.275C8.04523 8.589 7.54123 8.702 6.95523 8.834L6.84123 8.86L6.20523 9.004C4.95023 9.288 4.09523 9.483 3.51123 9.714C2.94023 9.938 2.82023 10.123 2.77423 10.27C2.72523 10.426 2.72423 10.665 3.06423 11.207C3.41123 11.757 3.99623 12.443 4.85023 13.443L5.28423 13.95L5.35923 14.037C5.76223 14.507 6.09823 14.899 6.25223 15.395C6.40523 15.888 6.35423 16.405 6.29223 17.033L6.28223 17.15L6.21623 17.827C6.08623 19.159 6.00023 20.077 6.02923 20.737C6.05923 21.397 6.19823 21.579 6.30923 21.663C6.40723 21.738 6.58923 21.82 7.18223 21.65C7.78523 21.478 8.58723 21.111 9.76223 20.57L10.3582 20.296L10.4672 20.246C11.0122 19.993 11.4842 19.775 12.0002 19.775C12.5162 19.775 12.9882 19.993 13.5332 20.245C13.5686 20.2623 13.6052 20.279 13.6432 20.295L14.2382 20.57C15.4132 21.111 16.2152 21.478 16.8182 21.65C17.4112 21.82 17.5932 21.738 17.6912 21.663C17.8022 21.579 17.9412 21.396 17.9712 20.737C18.0012 20.077 17.9132 19.159 17.7842 17.827L17.7182 17.15L17.7082 17.033C17.6462 16.405 17.5952 15.888 17.7482 15.395C17.9022 14.899 18.2382 14.507 18.6412 14.037L18.7162 13.95L19.1502 13.443C20.0042 12.443 20.5892 11.757 20.9352 11.207C21.2762 10.665 21.2752 10.427 21.2262 10.27C21.1802 10.123 21.0602 9.938 20.4892 9.714C19.9042 9.483 19.0502 9.288 17.7952 9.004L17.1592 8.86L17.0452 8.834C16.4592 8.702 15.9552 8.589 15.5422 8.275C15.1322 7.965 14.8792 7.508 14.5782 6.967L14.5202 6.861L14.1922 6.274C13.5462 5.116 13.1022 4.322 12.7082 3.808C12.3142 3.294 12.1142 3.25 12.0002 3.25C11.8862 3.25 11.6852 3.294 11.2922 3.808ZM10.1022 2.896C10.5772 2.274 11.1662 1.75 12.0002 1.75C12.8342 1.75 13.4222 2.274 13.8992 2.896C14.3672 3.508 14.8642 4.399 15.4712 5.488L15.8302 6.131C16.2222 6.835 16.3232 6.985 16.4492 7.081C16.5692 7.172 16.7262 7.224 17.4892 7.397L18.1892 7.555C19.3652 7.821 20.3342 8.04 21.0392 8.318C21.7712 8.607 22.4122 9.032 22.6592 9.825C22.9032 10.61 22.6292 11.332 22.2052 12.005C21.7932 12.66 21.1352 13.43 20.3312 14.37L19.8562 14.925C19.3392 15.529 19.2312 15.677 19.1802 15.84C19.1292 16.007 19.1332 16.2 19.2122 17.005L19.2832 17.743C19.4052 18.999 19.5042 20.023 19.4692 20.803C19.4342 21.598 19.2542 22.36 18.5992 22.858C17.9312 23.364 17.1542 23.308 16.4042 23.092C15.6772 22.884 14.7712 22.467 13.6712 21.96L13.0152 21.658C12.2972 21.328 12.1442 21.275 12.0002 21.275C11.8562 21.275 11.7032 21.328 10.9852 21.658L10.3302 21.96C9.22923 22.467 8.32323 22.884 7.59623 23.092C6.84623 23.307 6.06923 23.364 5.40223 22.858C4.74623 22.36 4.56623 21.598 4.53123 20.804C4.49623 20.024 4.59523 18.999 4.71723 17.744L4.78923 17.005C4.86723 16.199 4.87123 16.007 4.81923 15.84C4.76923 15.677 4.66123 15.53 4.14423 14.925L3.66923 14.37C2.86623 13.43 2.20823 12.66 1.79623 12.006C1.37123 11.332 1.09723 10.61 1.34123 9.825C1.58823 9.032 2.22923 8.607 2.96123 8.318C3.66623 8.04 4.63523 7.821 5.81123 7.555L5.87423 7.541L6.51023 7.397C7.27423 7.224 7.43023 7.172 7.55123 7.08C7.67723 6.985 7.77823 6.835 8.17123 6.131L8.52923 5.488C9.13623 4.398 9.63323 3.508 10.1012 2.896" fill="white"/>
</svg>
