<svg width="32" height="32" viewBox="0 0 32 32" fill="none" xmlns="http://www.w3.org/2000/svg">
<rect width="32" height="32" rx="8" fill="url(#paint0_linear_491_6892)"/>
<path d="M17.937 11.196C20.241 9.2373 22.053 6.91597 22.833 4.5973L22.8463 4.55597C24.7957 5.72042 26.4139 7.36524 27.5463 9.3333C28.6843 11.297 29.2995 13.5199 29.333 15.7893C26.673 15.2146 23.7517 15.656 20.9917 16.696C20.565 15.544 20.0783 14.4453 19.533 13.5C19.0595 12.6931 18.526 11.9229 17.937 11.196Z" fill="white"/>
<path fill-rule="evenodd" clip-rule="evenodd" d="M4.45353 22.6664C5.58553 24.6349 7.20383 26.2798 9.15353 27.4438V27.4411C10.2442 24.1504 13.4202 20.8478 17.1429 18.5824C17.7918 18.1869 18.462 17.8216 19.1535 17.4864C18.7509 16.3891 18.3002 15.3624 17.8015 14.4998C17.3718 13.774 16.8896 13.0806 16.3589 12.4251C15.8975 12.7558 15.4246 13.0696 14.9402 13.3664C11.2642 15.6238 6.79086 17.0238 2.85886 16.2491L2.66553 16.2118C2.70008 18.4802 3.31519 20.7019 4.45219 22.6651" fill="white"/>
<path opacity="0.5" d="M21.6348 18.5909C24.1508 17.6309 26.7161 17.2629 28.9374 17.7509L29.2094 17.8109C29.0482 18.9903 28.7299 20.1427 28.2628 21.2376C27.2717 23.567 25.6348 25.5643 23.5454 26.9936L23.5281 26.8882C23.276 25.3254 22.9705 23.7716 22.6121 22.2296C22.3293 21.0051 22.0033 19.7924 21.6348 18.5909ZM11.0921 4.60558C10.8277 4.39603 10.561 4.18935 10.2921 3.98558L10.2614 3.96425C12.5414 2.87294 15.0857 2.45568 17.5948 2.76158C18.7774 2.90425 19.9374 3.20558 21.0401 3.65491L20.9374 3.96025C20.3014 5.85091 18.7374 7.89358 16.6334 9.68025C15.7012 8.67358 14.7209 7.71246 13.6961 6.80025C12.851 6.04203 11.983 5.30969 11.0934 4.60425M13.8934 11.6629C10.4454 13.7802 6.49342 14.9282 3.24409 14.2882L2.78809 14.1976C3.03707 12.3711 3.66209 10.6161 4.62366 9.04333C5.58524 7.47061 6.86249 6.11437 8.37475 5.06025L8.81209 5.37891L8.81475 5.38025L8.82809 5.38958L8.88009 5.42825L9.08542 5.58158C10.2125 6.43995 11.3049 7.34289 12.3601 8.28825C13.2401 9.07758 14.1708 9.96825 15.0441 10.9082C14.6708 11.1687 14.2872 11.4202 13.8934 11.6629ZM21.6068 27.5509L21.6094 27.5669V27.5722L21.6801 28.0642C20.01 28.8504 18.1948 29.2813 16.3495 29.3295C14.5042 29.3777 12.669 29.0422 10.9601 28.3442L11.0521 28.0722C11.9361 25.4029 14.6788 22.4229 18.1828 20.2909C18.709 19.9709 19.245 19.6745 19.7908 19.4016C20.1268 20.5082 20.4188 21.6296 20.6641 22.6842C21.0321 24.2712 21.343 25.8709 21.5961 27.4802L21.6068 27.5509Z" fill="white"/>
<defs>
<linearGradient id="paint0_linear_491_6892" x1="16" y1="0" x2="16" y2="32" gradientUnits="userSpaceOnUse">
<stop stop-color="#00EE6E"/>
<stop offset="1" stop-color="#0C75E6"/>
</linearGradient>
</defs>
</svg>
