<svg width="32" height="32" viewBox="0 0 32 32" fill="none" xmlns="http://www.w3.org/2000/svg">
<path opacity="0.5" d="M16 29.3333C23.364 29.3333 29.3333 23.364 29.3333 16C29.3333 8.63596 23.364 2.66663 16 2.66663C8.63596 2.66663 2.66663 8.63596 2.66663 16C2.66663 18.1333 3.16796 20.1493 4.05729 21.9373C4.29463 22.412 4.37329 22.9546 4.23596 23.468L3.44263 26.436C3.36405 26.7297 3.36412 27.0389 3.44283 27.3326C3.52154 27.6263 3.67612 27.8941 3.89105 28.1092C4.10597 28.3242 4.37369 28.479 4.66733 28.5579C4.96096 28.6367 5.27019 28.637 5.56396 28.5586L8.53196 27.764C9.04713 27.6338 9.59214 27.6969 10.064 27.9413C11.9079 28.8594 13.9401 29.3359 16 29.3333Z" fill="url(#paint0_linear_638_11021)"/>
<path d="M10.4334 17.1333C10.1416 17.1333 9.86185 17.2492 9.65556 17.4555C9.44927 17.6618 9.33337 17.9416 9.33337 18.2333C9.33337 18.5251 9.44927 18.8049 9.65556 19.0112C9.86185 19.2174 10.1416 19.3333 10.4334 19.3333H18.5C18.7918 19.3333 19.0716 19.2174 19.2779 19.0112C19.4841 18.8049 19.6 18.5251 19.6 18.2333C19.6 17.9416 19.4841 17.6618 19.2779 17.4555C19.0716 17.2492 18.7918 17.1333 18.5 17.1333H10.4334ZM10.4334 12C10.1416 12 9.86185 12.1159 9.65556 12.3222C9.44927 12.5285 9.33337 12.8083 9.33337 13.1C9.33337 13.3917 9.44927 13.6715 9.65556 13.8778C9.86185 14.0841 10.1416 14.2 10.4334 14.2H22.1667C22.4584 14.2 22.7382 14.0841 22.9445 13.8778C23.1508 13.6715 23.2667 13.3917 23.2667 13.1C23.2667 12.8083 23.1508 12.5285 22.9445 12.3222C22.7382 12.1159 22.4584 12 22.1667 12H10.4334Z" fill="url(#paint1_linear_638_11021)"/>
<defs>
<linearGradient id="paint0_linear_638_11021" x1="16" y1="2.66663" x2="16" y2="29.3333" gradientUnits="userSpaceOnUse">
<stop stop-color="#F8A902"/>
<stop offset="1" stop-color="#F3696E"/>
</linearGradient>
<linearGradient id="paint1_linear_638_11021" x1="16.3" y1="12" x2="16.3" y2="19.3333" gradientUnits="userSpaceOnUse">
<stop stop-color="#F8A902"/>
<stop offset="1" stop-color="#F3696E"/>
</linearGradient>
</defs>
</svg>
