<svg width="16" height="16" viewBox="0 0 16 16" fill="none" xmlns="http://www.w3.org/2000/svg">
<g clip-path="url(#clip0_11_906)">
<path d="M11.3818 0.000244141H8.68537V10.8988C8.68537 12.1974 7.64829 13.264 6.35767 13.264C5.06705 13.264 4.02996 12.1974 4.02996 10.8988C4.02996 9.62344 5.04401 8.57993 6.28854 8.53358V5.79736C3.54597 5.84371 1.3335 8.093 1.3335 10.8988C1.3335 13.7278 3.59207 16.0002 6.38073 16.0002C9.16935 16.0002 11.4279 13.7046 11.4279 10.8988V5.31038C12.442 6.05242 13.6865 6.493 15.0002 6.5162V3.77996C12.9721 3.71039 11.3818 2.04082 11.3818 0.000244141Z" fill="white" fill-opacity="0.55"/>
</g>
<defs>
<clipPath id="clip0_11_906">
<rect width="16" height="16" fill="white" transform="translate(0 0.000244141)"/>
</clipPath>
</defs>
</svg>
