<svg width="24" height="24" viewBox="0 0 24 24" fill="none" xmlns="http://www.w3.org/2000/svg">
<path d="M20.312 12.647L20.829 10.715C21.433 8.45997 21.736 7.33297 21.509 6.35697C21.3291 5.58646 20.9247 4.88662 20.347 4.34597C19.616 3.66097 18.488 3.35897 16.233 2.75497C13.978 2.14997 12.85 1.84797 11.875 2.07497C11.1045 2.25488 10.4046 2.65927 9.86397 3.23697C9.27697 3.86297 8.97097 4.77997 8.51597 6.44597L8.27197 7.35097L7.75497 9.28297C7.14997 11.538 6.84797 12.665 7.07497 13.641C7.25488 14.4115 7.65927 15.1113 8.23697 15.652C8.96797 16.337 10.096 16.639 12.351 17.244C14.383 17.788 15.5 18.087 16.415 17.974C16.515 17.9613 16.613 17.944 16.709 17.922C17.4792 17.7426 18.1791 17.3389 18.72 16.762C19.405 16.03 19.707 14.902 20.312 12.647Z" fill="white"/>
<path opacity="0.5" d="M16.415 17.9748C16.2058 18.6148 15.8384 19.1916 15.347 19.6518C14.616 20.3368 13.488 20.6388 11.233 21.2428C8.97797 21.8468 7.84997 22.1498 6.87497 21.9218C6.10458 21.7422 5.40475 21.3382 4.86397 20.7608C4.17897 20.0298 3.87597 18.9018 3.27197 16.6468L2.75497 14.7148C2.14997 12.4598 1.84797 11.3318 2.07497 10.3568C2.25488 9.58632 2.65927 8.88648 3.23697 8.34582C3.96797 7.66082 5.09597 7.35882 7.35097 6.75382C7.7763 6.63916 8.16464 6.53616 8.51597 6.44482L8.27197 7.35082L7.75497 9.28282C7.14997 11.5378 6.84797 12.6648 7.07497 13.6408C7.25488 14.4113 7.65927 15.1112 8.23697 15.6518C8.96797 16.3368 10.096 16.6388 12.351 17.2438C14.383 17.7878 15.5 18.0878 16.415 17.9748Z" fill="white"/>
</svg>
