<svg width="32" height="32" viewBox="0 0 32 32" fill="none" xmlns="http://www.w3.org/2000/svg">
<path opacity="0.5" d="M16 29.3333C23.364 29.3333 29.3333 23.364 29.3333 16C29.3333 8.63596 23.364 2.66663 16 2.66663C8.63599 2.66663 2.66666 8.63596 2.66666 16C2.66666 18.1333 3.16799 20.1493 4.05732 21.9373C4.29466 22.412 4.37332 22.9546 4.23599 23.468L3.44266 26.436C3.36408 26.7297 3.36416 27.0389 3.44286 27.3326C3.52157 27.6263 3.67615 27.8941 3.89108 28.1092C4.106 28.3242 4.37372 28.479 4.66736 28.5579C4.961 28.6367 5.27022 28.637 5.56399 28.5586L8.53199 27.764C9.04716 27.6338 9.59217 27.6969 10.064 27.9413C11.9079 28.8594 13.9401 29.3359 16 29.3333Z" fill="white" fill-opacity="0.55"/>
<path d="M10.4333 17.1333C10.1416 17.1333 9.86182 17.2492 9.65553 17.4555C9.44924 17.6618 9.33334 17.9416 9.33334 18.2333C9.33334 18.5251 9.44924 18.8049 9.65553 19.0112C9.86182 19.2174 10.1416 19.3333 10.4333 19.3333H18.5C18.7917 19.3333 19.0715 19.2174 19.2778 19.0112C19.4841 18.8049 19.6 18.5251 19.6 18.2333C19.6 17.9416 19.4841 17.6618 19.2778 17.4555C19.0715 17.2492 18.7917 17.1333 18.5 17.1333H10.4333ZM10.4333 12C10.1416 12 9.86182 12.1159 9.65553 12.3222C9.44924 12.5285 9.33334 12.8083 9.33334 13.1C9.33334 13.3917 9.44924 13.6715 9.65553 13.8778C9.86182 14.0841 10.1416 14.2 10.4333 14.2H22.1667C22.4584 14.2 22.7382 14.0841 22.9445 13.8778C23.1508 13.6715 23.2667 13.3917 23.2667 13.1C23.2667 12.8083 23.1508 12.5285 22.9445 12.3222C22.7382 12.1159 22.4584 12 22.1667 12H10.4333Z" fill="white" fill-opacity="0.55"/>
</svg>
