<svg width="16" height="16" viewBox="0 0 16 16" fill="none" xmlns="http://www.w3.org/2000/svg">
<path opacity="0.3" d="M10.9806 10.9806C14.2732 7.68797 15.6072 3.68464 13.9612 2.03864C12.3152 0.391973 8.31191 1.72664 5.01924 5.01864C1.72657 8.31197 0.392575 12.3153 2.03857 13.9613C3.68524 15.608 7.68858 14.2726 10.9806 10.9806Z" fill="white"/>
<path opacity="0.3" d="M5.01924 10.9806C1.72657 7.68864 0.392575 3.68464 2.03857 2.03864C3.68458 0.391973 7.68791 1.72664 10.9806 5.01864C14.2732 8.31197 15.6072 12.3153 13.9612 13.9613C12.3146 15.608 8.31124 14.2726 5.01924 10.9806Z" fill="white"/>
<path d="M9.66683 7.99992C9.66683 8.44195 9.49123 8.86587 9.17867 9.17843C8.86611 9.49099 8.44219 9.66659 8.00016 9.66659C7.55814 9.66659 7.13421 9.49099 6.82165 9.17843C6.50909 8.86587 6.3335 8.44195 6.3335 7.99992C6.3335 7.55789 6.50909 7.13397 6.82165 6.82141C7.13421 6.50885 7.55814 6.33325 8.00016 6.33325C8.44219 6.33325 8.86611 6.50885 9.17867 6.82141C9.49123 7.13397 9.66683 7.55789 9.66683 7.99992Z" fill="white"/>
</svg>
