<svg xmlns="http://www.w3.org/2000/svg" width="24" height="24" viewBox="0 0 24 24" fill="none">
  <path opacity="0.5" d="M10.6671 6.134L10.1651 5.779C9.44871 5.27204 8.59269 4.99986 7.71508 5H7.10308C6.69808 5 6.29008 5.025 5.90908 5.16C3.52608 6.006 1.88708 9.095 2.00608 16.103C2.03008 17.515 2.36008 19.075 3.63408 19.684C4.06867 19.8929 4.54487 20.001 5.02708 20C5.56908 20.0089 6.10154 19.8568 6.55708 19.563C6.96708 19.295 7.32708 18.947 7.68708 18.599C8.13108 18.169 8.57508 17.739 9.11108 17.461C9.69497 17.1579 10.3432 16.9998 11.0011 17H13.0001C13.6581 17 14.3061 17.158 14.8901 17.46C15.4261 17.739 15.8701 18.169 16.3151 18.599C16.6751 18.947 17.0351 19.295 17.4431 19.563C17.8331 19.819 18.3381 20 18.9741 20C19.4563 20.001 19.9325 19.8929 20.3671 19.684C21.6411 19.075 21.9711 17.514 21.9951 16.103C22.1141 9.095 20.4751 6.006 18.0921 5.161C17.7101 5.025 17.3001 5 16.8971 5H16.2851C15.4074 5.00015 14.5513 5.27268 13.8351 5.78L13.3331 6.134C12.9432 6.40949 12.4775 6.55741 12.0001 6.55741C11.5227 6.55741 11.057 6.40949 10.6671 6.134Z" fill="white"/>
  <path d="M16.75 9C16.9489 9 17.1397 9.07902 17.2803 9.21967C17.421 9.36032 17.5 9.55109 17.5 9.75C17.5 9.94891 17.421 10.1397 17.2803 10.2803C17.1397 10.421 16.9489 10.5 16.75 10.5C16.5511 10.5 16.3603 10.421 16.2197 10.2803C16.079 10.1397 16 9.94891 16 9.75C16 9.55109 16.079 9.36032 16.2197 9.21967C16.3603 9.07902 16.5511 9 16.75 9ZM7.5 9.25C7.69891 9.25 7.88968 9.32902 8.03033 9.46967C8.17098 9.61032 8.25 9.80109 8.25 10V10.75H9C9.19891 10.75 9.38968 10.829 9.53033 10.9697C9.67098 11.1103 9.75 11.3011 9.75 11.5C9.75 11.6989 9.67098 11.8897 9.53033 12.0303C9.38968 12.171 9.19891 12.25 9 12.25H8.25V13C8.25 13.1989 8.17098 13.3897 8.03033 13.5303C7.88968 13.671 7.69891 13.75 7.5 13.75C7.30109 13.75 7.11032 13.671 6.96967 13.5303C6.82902 13.3897 6.75 13.1989 6.75 13V12.25H6C5.80109 12.25 5.61032 12.171 5.46967 12.0303C5.32902 11.8897 5.25 11.6989 5.25 11.5C5.25 11.3011 5.32902 11.1103 5.46967 10.9697C5.61032 10.829 5.80109 10.75 6 10.75H6.75V10C6.75 9.80109 6.82902 9.61032 6.96967 9.46967C7.11032 9.32902 7.30109 9.25 7.5 9.25ZM19 11.25C19 11.4489 18.921 11.6397 18.7803 11.7803C18.6397 11.921 18.4489 12 18.25 12C18.0511 12 17.8603 11.921 17.7197 11.7803C17.579 11.6397 17.5 11.4489 17.5 11.25C17.5 11.0511 17.579 10.8603 17.7197 10.7197C17.8603 10.579 18.0511 10.5 18.25 10.5C18.4489 10.5 18.6397 10.579 18.7803 10.7197C18.921 10.8603 19 11.0511 19 11.25ZM15.25 12C15.4489 12 15.6397 11.921 15.7803 11.7803C15.921 11.6397 16 11.4489 16 11.25C16 11.0511 15.921 10.8603 15.7803 10.7197C15.6397 10.579 15.4489 10.5 15.25 10.5C15.0511 10.5 14.8603 10.579 14.7197 10.7197C14.579 10.8603 14.5 11.0511 14.5 11.25C14.5 11.4489 14.579 11.6397 14.7197 11.7803C14.8603 11.921 15.0511 12 15.25 12ZM17.5 12.75C17.5 12.5511 17.421 12.3603 17.2803 12.2197C17.1397 12.079 16.9489 12 16.75 12C16.5511 12 16.3603 12.079 16.2197 12.2197C16.079 12.3603 16 12.5511 16 12.75C16 12.9489 16.079 13.1397 16.2197 13.2803C16.3603 13.421 16.5511 13.5 16.75 13.5C16.9489 13.5 17.1397 13.421 17.2803 13.2803C17.421 13.1397 17.5 12.9489 17.5 12.75Z" fill="white"/>
</svg>