<svg width="16" height="17" viewBox="0 0 16 17" fill="none" xmlns="http://www.w3.org/2000/svg">
<path opacity="0.5" d="M14.6668 8.49998C14.6668 12.182 11.6822 15.1666 8.00016 15.1666C4.31816 15.1666 1.3335 12.182 1.3335 8.49998C1.3335 4.81798 4.31816 1.83331 8.00016 1.83331C11.6822 1.83331 14.6668 4.81798 14.6668 8.49998Z" fill="white"/>
<path d="M8.00016 12.3334C8.13277 12.3334 8.25995 12.2807 8.35372 12.1869C8.44748 12.0931 8.50016 11.966 8.50016 11.8334V7.83335C8.50016 7.70075 8.44748 7.57357 8.35372 7.4798C8.25995 7.38603 8.13277 7.33335 8.00016 7.33335C7.86755 7.33335 7.74038 7.38603 7.64661 7.4798C7.55284 7.57357 7.50016 7.70075 7.50016 7.83335V11.8334C7.50016 12.1094 7.72416 12.3334 8.00016 12.3334ZM8.00016 5.16669C8.17697 5.16669 8.34654 5.23693 8.47157 5.36195C8.59659 5.48697 8.66683 5.65654 8.66683 5.83335C8.66683 6.01016 8.59659 6.17973 8.47157 6.30476C8.34654 6.42978 8.17697 6.50002 8.00016 6.50002C7.82335 6.50002 7.65378 6.42978 7.52876 6.30476C7.40373 6.17973 7.3335 6.01016 7.3335 5.83335C7.3335 5.65654 7.40373 5.48697 7.52876 5.36195C7.65378 5.23693 7.82335 5.16669 8.00016 5.16669Z" fill="white"/>
</svg>
