<svg width="24" height="24" viewBox="0 0 24 24" fill="none" xmlns="http://www.w3.org/2000/svg">
<path opacity="0.5" d="M12 22C17.5228 22 22 17.5228 22 12C22 6.47715 17.5228 2 12 2C6.47715 2 2 6.47715 2 12C2 17.5228 6.47715 22 12 22Z" fill="white"/>
<path d="M8.57482 9.44701C8.38782 7.36301 6.78082 5.42101 5.99982 4.71101L5.56982 4.34101C7.36942 2.82579 9.64728 1.99648 11.9998 2.00001C14.2138 2.00001 16.2598 2.72001 17.9158 3.93601C18.1498 4.64701 17.7038 6.13201 17.2358 6.84201C17.0658 7.09901 16.6818 7.41901 16.2598 7.72201C15.3098 8.40501 14.1098 8.74201 13.4998 10C13.3474 10.3167 13.3178 10.6787 13.4168 11.016C13.4768 11.236 13.5168 11.475 13.5168 11.708C13.5188 12.463 12.7548 13.008 11.9998 13C10.0358 12.979 8.74982 11.396 8.57482 9.44701ZM13.4368 18.276C14.4248 16.414 17.7178 16.414 17.7178 16.414C21.1498 16.378 21.6138 14.294 21.9238 13.241C21.6504 15.4221 20.6664 17.4526 19.1237 19.0185C17.581 20.5845 15.5656 21.5989 13.3888 21.905C13.0658 21.225 12.6838 19.695 13.4368 18.276Z" fill="white"/>
</svg>
