<svg xmlns="http://www.w3.org/2000/svg" width="24" height="24" viewBox="0 0 24 24" fill="none">
  <path opacity="0.5" d="M2 9.13702C2 14 6.02 16.591 8.962 18.911C10 19.729 11 20.5 12 20.5C13 20.5 14 19.73 15.038 18.91C17.981 16.592 22 14 22 9.13802C22 4.27602 16.5 0.825015 12 5.50102C7.5 0.825015 2 4.27402 2 9.13702Z" fill="white"/>
  <path d="M16.5 13.287C14.025 10.571 11 12.575 11 15.399C11 17.959 12.814 19.434 14.358 20.691L14.402 20.727L14.829 21.077C15.4 21.552 15.95 22 16.5 22C17.05 22 17.6 21.552 18.171 21.077C19.789 19.73 22 18.224 22 15.399C22 14.472 21.674 13.632 21.147 13.019C20.072 11.768 18.162 11.463 16.5 13.287Z" fill="white"/>
</svg>