<svg width="16" height="16" viewBox="0 0 16 16" fill="none" xmlns="http://www.w3.org/2000/svg">
<path d="M7.99987 0.0317383C3.51126 0.0317383 0.0317383 3.31971 0.0317383 7.76082C0.0317383 10.084 0.98377 12.091 2.53405 13.4778C2.66441 13.5941 2.74281 13.7576 2.74823 13.932L2.79158 15.3497C2.80528 15.8016 3.27254 16.0958 3.68592 15.9132L5.26744 15.2148C5.40162 15.1559 5.55174 15.1447 5.69293 15.1839C6.41995 15.3838 7.19317 15.4902 7.99955 15.4902C12.4882 15.4902 15.9677 12.2023 15.9677 7.76114C15.9677 3.32003 12.4885 0.0317383 7.99987 0.0317383ZM12.9376 5.69835L10.1634 9.98584C10.0225 10.2035 9.73214 10.2657 9.51445 10.1248L6.94457 8.46202C6.84512 8.39763 6.71636 8.39955 6.61883 8.4668L3.72226 10.4646C3.29963 10.7559 2.78297 10.2545 3.06186 9.82361L5.83636 5.53612C5.97724 5.31843 6.2676 5.25628 6.48497 5.39716L9.05548 7.06026C9.15493 7.12465 9.28369 7.12273 9.38122 7.05548L12.2772 5.05803C12.6998 4.7664 13.2164 5.26807 12.9376 5.69899V5.69835Z" fill="white" fill-opacity="0.55"/>
</svg>
