<svg width="32" height="32" viewBox="0 0 32 32" fill="none" xmlns="http://www.w3.org/2000/svg">
<path d="M17.9373 11.1959C20.2413 9.23724 22.0533 6.91591 22.8333 4.59724L22.8466 4.55591C24.7959 5.72036 26.4141 7.36518 27.5466 9.33324C28.6846 11.297 29.2997 13.5198 29.3333 15.7892C26.6733 15.2146 23.7519 15.6559 20.9919 16.6959C20.5653 15.5439 20.0786 14.4452 19.5333 13.4999C19.0597 12.693 18.5262 11.9228 17.9373 11.1959Z" fill="url(#paint0_linear_638_10385)"/>
<path fill-rule="evenodd" clip-rule="evenodd" d="M4.45328 22.6664C5.58529 24.6348 7.20359 26.2797 9.15328 27.4437V27.441C10.2439 24.1504 13.42 20.8477 17.1426 18.5824C17.7915 18.1868 18.4617 17.8215 19.1533 17.4864C18.7506 16.389 18.3 15.3624 17.8013 14.4997C17.3715 13.774 16.8893 13.0806 16.3586 12.425C15.8973 12.7557 15.4244 13.0695 14.94 13.3664C11.264 15.6237 6.79062 17.0237 2.85862 16.249L2.66528 16.2117C2.69984 18.4801 3.31495 20.7019 4.45195 22.665" fill="url(#paint1_linear_638_10385)"/>
<path opacity="0.5" d="M21.6348 18.5909C24.1508 17.6309 26.7161 17.2629 28.9374 17.7509L29.2094 17.8109C29.0482 18.9903 28.7299 20.1427 28.2628 21.2376C27.2717 23.567 25.6348 25.5643 23.5454 26.9936L23.5281 26.8882C23.276 25.3254 22.9705 23.7716 22.6121 22.2296C22.3293 21.0051 22.0033 19.7924 21.6348 18.5909ZM11.0921 4.60558C10.8277 4.39603 10.561 4.18935 10.2921 3.98558L10.2614 3.96425C12.5414 2.87294 15.0857 2.45568 17.5948 2.76158C18.7774 2.90425 19.9374 3.20558 21.0401 3.65491L20.9374 3.96025C20.3014 5.85091 18.7374 7.89358 16.6334 9.68025C15.7012 8.67358 14.7209 7.71246 13.6961 6.80025C12.851 6.04203 11.983 5.30969 11.0934 4.60425M13.8934 11.6629C10.4454 13.7802 6.49342 14.9282 3.24409 14.2882L2.78809 14.1976C3.03707 12.3711 3.66209 10.6161 4.62366 9.04333C5.58524 7.47061 6.86249 6.11437 8.37475 5.06025L8.81209 5.37891L8.81475 5.38025L8.82809 5.38958L8.88009 5.42825L9.08542 5.58158C10.2125 6.43995 11.3049 7.34289 12.3601 8.28825C13.2401 9.07758 14.1708 9.96825 15.0441 10.9082C14.6708 11.1687 14.2872 11.4202 13.8934 11.6629ZM21.6068 27.5509L21.6094 27.5669V27.5722L21.6801 28.0642C20.01 28.8504 18.1948 29.2813 16.3495 29.3295C14.5042 29.3777 12.669 29.0422 10.9601 28.3442L11.0521 28.0722C11.9361 25.4029 14.6788 22.4229 18.1828 20.2909C18.709 19.9709 19.245 19.6745 19.7908 19.4016C20.1268 20.5082 20.4188 21.6296 20.6641 22.6842C21.0321 24.2712 21.343 25.8709 21.5961 27.4802L21.6068 27.5509Z" fill="url(#paint2_linear_638_10385)"/>
<defs>
<linearGradient id="paint0_linear_638_10385" x1="23.6353" y1="4.55591" x2="23.6353" y2="16.6959" gradientUnits="userSpaceOnUse">
<stop stop-color="#F8A902"/>
<stop offset="1" stop-color="#F3696E"/>
</linearGradient>
<linearGradient id="paint1_linear_638_10385" x1="10.9093" y1="12.425" x2="10.9093" y2="27.4437" gradientUnits="userSpaceOnUse">
<stop stop-color="#F8A902"/>
<stop offset="1" stop-color="#F3696E"/>
</linearGradient>
<linearGradient id="paint2_linear_638_10385" x1="15.9988" y1="2.66406" x2="15.9988" y2="29.334" gradientUnits="userSpaceOnUse">
<stop stop-color="#F8A902"/>
<stop offset="1" stop-color="#F3696E"/>
</linearGradient>
</defs>
</svg>
